<mxfile host="app.diagrams.net" modified="2023-06-06T18:17:07.798Z" agent="Mozilla/5.0 (Macintosh; Intel Mac OS X 10_15_7) AppleWebKit/537.36 (KHTML, like Gecko) Chrome/114.0.0.0 Safari/537.36" etag="QfZaaqZK86ubGJSjSySY" version="21.1.5" type="github">
  <diagram id="O8ljUMNmDTq41scco7EA" name="PÃ¡gina-1">
    <mxGraphModel dx="934" dy="664" grid="1" gridSize="10" guides="1" tooltips="1" connect="1" arrows="1" fold="1" page="1" pageScale="1" pageWidth="827" pageHeight="1169" math="0" shadow="0">
      <root>
        <mxCell id="0" />
        <mxCell id="1" parent="0" />
        <mxCell id="w7FNTm_7FEWa8n9d1k9r-1" value="&lt;font style=&quot;font-size: 24px;&quot;&gt;1.3 OLED (SH1106)&lt;/font&gt;" style="rounded=0;whiteSpace=wrap;html=1;fillColor=#cce5ff;strokeColor=#36393d;" vertex="1" parent="1">
          <mxGeometry x="124" y="30" width="290" height="150" as="geometry" />
        </mxCell>
        <mxCell id="w7FNTm_7FEWa8n9d1k9r-2" value="&lt;b&gt;GND&lt;br&gt;&lt;/b&gt;*" style="text;html=1;strokeColor=none;fillColor=none;align=center;verticalAlign=middle;whiteSpace=wrap;rounded=0;" vertex="1" parent="1">
          <mxGeometry x="180" y="180" width="60" height="30" as="geometry" />
        </mxCell>
        <mxCell id="w7FNTm_7FEWa8n9d1k9r-3" value="&lt;b&gt;VCC&lt;br&gt;*&lt;/b&gt;" style="text;html=1;strokeColor=none;fillColor=none;align=center;verticalAlign=middle;whiteSpace=wrap;rounded=0;" vertex="1" parent="1">
          <mxGeometry x="220" y="180" width="60" height="30" as="geometry" />
        </mxCell>
        <mxCell id="w7FNTm_7FEWa8n9d1k9r-4" value="&lt;b&gt;SLC&lt;br&gt;*&lt;/b&gt;" style="text;html=1;strokeColor=none;fillColor=none;align=center;verticalAlign=middle;whiteSpace=wrap;rounded=0;" vertex="1" parent="1">
          <mxGeometry x="260" y="180" width="60" height="30" as="geometry" />
        </mxCell>
        <mxCell id="w7FNTm_7FEWa8n9d1k9r-5" value="&lt;b&gt;SDA&lt;br&gt;*&lt;/b&gt;" style="text;html=1;strokeColor=none;fillColor=none;align=center;verticalAlign=middle;whiteSpace=wrap;rounded=0;" vertex="1" parent="1">
          <mxGeometry x="300" y="180" width="60" height="30" as="geometry" />
        </mxCell>
        <mxCell id="w7FNTm_7FEWa8n9d1k9r-6" value="&lt;font style=&quot;font-size: 30px;&quot;&gt;ESP 8266&lt;/font&gt;" style="rounded=0;whiteSpace=wrap;html=1;" vertex="1" parent="1">
          <mxGeometry x="30" y="340" width="430" height="130" as="geometry" />
        </mxCell>
        <mxCell id="w7FNTm_7FEWa8n9d1k9r-7" value="&lt;b&gt;*&lt;br&gt;D0&lt;/b&gt;" style="text;html=1;strokeColor=none;fillColor=none;align=center;verticalAlign=middle;whiteSpace=wrap;rounded=0;" vertex="1" parent="1">
          <mxGeometry x="50" y="310" width="60" height="30" as="geometry" />
        </mxCell>
        <mxCell id="w7FNTm_7FEWa8n9d1k9r-8" value="&lt;b&gt;*&lt;br&gt;D1&lt;/b&gt;" style="text;html=1;strokeColor=none;fillColor=none;align=center;verticalAlign=middle;whiteSpace=wrap;rounded=0;" vertex="1" parent="1">
          <mxGeometry x="90" y="310" width="60" height="30" as="geometry" />
        </mxCell>
        <mxCell id="w7FNTm_7FEWa8n9d1k9r-11" value="&lt;b&gt;*&lt;br&gt;D2&lt;/b&gt;" style="text;html=1;strokeColor=none;fillColor=none;align=center;verticalAlign=middle;whiteSpace=wrap;rounded=0;" vertex="1" parent="1">
          <mxGeometry x="130" y="310" width="60" height="30" as="geometry" />
        </mxCell>
        <mxCell id="w7FNTm_7FEWa8n9d1k9r-12" value="" style="edgeStyle=orthogonalEdgeStyle;orthogonalLoop=1;jettySize=auto;html=1;entryX=0.5;entryY=0;entryDx=0;entryDy=0;strokeWidth=1;startArrow=classic;startFill=1;strokeColor=#36393d;rounded=0;jumpStyle=none;shadow=0;targetPerimeterSpacing=0;shape=flexArrow;fillColor=#ffff88;endSize=6;fillStyle=auto;gradientColor=none;" edge="1" parent="1" source="w7FNTm_7FEWa8n9d1k9r-5" target="w7FNTm_7FEWa8n9d1k9r-11">
          <mxGeometry relative="1" as="geometry">
            <mxPoint x="400" y="220" as="sourcePoint" />
            <mxPoint x="270" y="320" as="targetPoint" />
            <Array as="points">
              <mxPoint x="330" y="270" />
              <mxPoint x="160" y="270" />
            </Array>
          </mxGeometry>
        </mxCell>
        <mxCell id="w7FNTm_7FEWa8n9d1k9r-13" value="" style="edgeStyle=orthogonalEdgeStyle;orthogonalLoop=1;jettySize=auto;html=1;strokeWidth=1;startArrow=classic;startFill=1;strokeColor=#36393d;rounded=0;jumpStyle=none;shadow=0;targetPerimeterSpacing=0;shape=flexArrow;fillColor=#cce5ff;endSize=6;fillStyle=auto;" edge="1" parent="1" source="w7FNTm_7FEWa8n9d1k9r-4" target="w7FNTm_7FEWa8n9d1k9r-8">
          <mxGeometry relative="1" as="geometry">
            <mxPoint x="290" y="220" as="sourcePoint" />
            <mxPoint x="260" y="320" as="targetPoint" />
            <Array as="points">
              <mxPoint x="290" y="250" />
              <mxPoint x="120" y="250" />
            </Array>
          </mxGeometry>
        </mxCell>
      </root>
    </mxGraphModel>
  </diagram>
</mxfile>
